<svg id="Сonversion_Exchange_Plus" data-name="Сonversion, Exchange, Plus" xmlns="http://www.w3.org/2000/svg" width="20" height="20" viewBox="0 0 20 20">
  <g id="Group_82" data-name="Group 82" transform="translate(2.495 2.5)">
    <path id="Path_118" data-name="Path 118" d="M19.507,12.1a7.5,7.5,0,0,1-7.5,7.413" transform="translate(-4.497 -4.517)" fill="none" stroke="#002959" stroke-linecap="round" stroke-linejoin="round" stroke-width="1.2"/>
    <path id="Path_119" data-name="Path 119" d="M18.248,7.653l2.1.312-.111-2.3" transform="translate(-5.536 -3.443)" fill="none" stroke="#002959" stroke-linecap="round" stroke-linejoin="round" stroke-width="1.2"/>
    <path id="Path_120" data-name="Path 120" d="M19.448,7.583a7.516,7.516,0,0,0-3.783-3.791" transform="translate(-5.106 -3.132)" fill="none" stroke="#002959" stroke-linecap="round" stroke-linejoin="round" stroke-width="1.2"/>
    <path id="Path_121" data-name="Path 121" d="M2.994,10.413A7.5,7.5,0,0,1,10.49,3" transform="translate(-2.994 -3)" fill="none" stroke="#002959" stroke-linecap="round" stroke-linejoin="round" stroke-width="1.2"/>
    <path id="Path_122" data-name="Path 122" d="M5.331,15.887l-2.1-.312.111,2.3" transform="translate(-3.033 -5.096)" fill="none" stroke="#002959" stroke-linecap="round" stroke-linejoin="round" stroke-width="1.2"/>
    <path id="Path_123" data-name="Path 123" d="M3.795,15.659A7.516,7.516,0,0,0,7.578,19.45" transform="translate(-3.127 -5.11)" fill="none" stroke="#002959" stroke-linecap="round" stroke-linejoin="round" stroke-width="1.2"/>
    <path id="Path_124" data-name="Path 124" d="M11.99,8.43v5.95" transform="translate(-4.493 -3.905)" fill="none" stroke="#002959" stroke-linecap="round" stroke-linejoin="round" stroke-width="1.2"/>
    <path id="Path_125" data-name="Path 125" d="M8.43,12h5.95" transform="translate(-3.9 -4.5)" fill="none" stroke="#002959" stroke-linecap="round" stroke-linejoin="round" stroke-width="1.2"/>
  </g>
  <path id="Path_126" data-name="Path 126" d="M0,0H20V20H0Z" fill="none"/>
</svg>
