<svg xmlns="http://www.w3.org/2000/svg" width="25.5" height="25.5" viewBox="0 0 25.5 25.5">
  <g id="Group_158" data-name="Group 158" transform="translate(-6.25 -6.25)">
    <line id="Line_4" data-name="Line 4" x1="23.95" transform="translate(7.05 18.424)" fill="none" stroke="#323232" stroke-linecap="round" stroke-linejoin="round" stroke-width="1.5"/>
    <line id="Line_5" data-name="Line 5" x2="0.5" transform="translate(23.697 23.632)" fill="none" stroke="#323232" stroke-linecap="round" stroke-linejoin="round" stroke-width="1.5"/>
    <path id="Path_150" data-name="Path 150" d="M7,19.737v7.229H7a4,4,0,0,0,3.994,4L27,31h0a4,4,0,0,0,4-4h0V11h0a4,4,0,0,0-3.991-4H16.821a4,4,0,0,0-3.137,1.517L8.735,14.774h0A8.009,8.009,0,0,0,7,19.737Z" transform="translate(0 0)" fill="none" stroke="#323232" stroke-linecap="round" stroke-linejoin="round" stroke-width="1.5"/>
  </g>
</svg>
