<svg id="Fuel_Petrol_Refueling" data-name="Fuel, Petrol, Refueling" xmlns="http://www.w3.org/2000/svg" width="24" height="24" viewBox="0 0 24 24">
  <g id="Group_45" data-name="Group 45">
    <path id="Path_72" data-name="Path 72" d="M13.495,10.36a2.132,2.132,0,1,1-3.015,0,2.132,2.132,0,0,1,3.015,0" fill="none" stroke="#002959" stroke-linecap="round" stroke-linejoin="round" stroke-width="1.5"/>
    <path id="Path_73" data-name="Path 73" d="M2,18.5H4.75" fill="none" stroke="#002959" stroke-linecap="round" stroke-linejoin="round" stroke-width="1.5"/>
    <path id="Path_74" data-name="Path 74" d="M2,12a10,10,0,0,1,20,0" fill="none" stroke="#002959" stroke-linecap="round" stroke-linejoin="round" stroke-width="1.5"/>
    <path id="Path_75" data-name="Path 75" d="M12,2V4" fill="none" stroke="#002959" stroke-linecap="round" stroke-linejoin="round" stroke-width="1.5"/>
    <path id="Path_76" data-name="Path 76" d="M19.07,4.93l-1,1" fill="none" stroke="#002959" stroke-linecap="round" stroke-linejoin="round" stroke-width="1.5"/>
    <path id="Path_77" data-name="Path 77" d="M4.93,4.93l1,1" fill="none" stroke="#002959" stroke-linecap="round" stroke-linejoin="round" stroke-width="1.5"/>
    <path id="Path_78" data-name="Path 78" d="M2,12H4" fill="none" stroke="#002959" stroke-linecap="round" stroke-linejoin="round" stroke-width="1.5"/>
    <path id="Path_79" data-name="Path 79" d="M22,12H20" fill="none" stroke="#002959" stroke-linecap="round" stroke-linejoin="round" stroke-width="1.5"/>
    <path id="Path_80" data-name="Path 80" d="M15.99,7.86l-2.5,2.5" fill="none" stroke="#002959" stroke-linecap="round" stroke-linejoin="round" stroke-width="1.5"/>
    <path id="Path_81" data-name="Path 81" d="M22,16H18.432v2.5" fill="none" stroke="#002959" stroke-linecap="round" stroke-linejoin="round" stroke-width="1.5"/>
    <path id="Path_82" data-name="Path 82" d="M5.568,21H2V16H5.568" fill="none" stroke="#002959" stroke-linecap="round" stroke-linejoin="round" stroke-width="1.5"/>
    <path id="Path_83" data-name="Path 83" d="M18.43,18.5h2.75" fill="none" stroke="#002959" stroke-linecap="round" stroke-linejoin="round" stroke-width="1.5"/>
  </g>
  <path id="Path_84" data-name="Path 84" d="M0,0H24V24H0Z" fill="none"/>
</svg>
