<svg id="Gas_station" data-name="Gas station" xmlns="http://www.w3.org/2000/svg" width="24" height="24" viewBox="0 0 24 24">
  <path id="Path_35" data-name="Path 35" d="M0,0H24V24H0Z" fill="none"/>
  <path id="Path_36" data-name="Path 36" d="M6.5,7h6v4h-6Z" fill="none" stroke="#002959" stroke-linecap="round" stroke-linejoin="round" stroke-width="1.5"/>
  <path id="Path_37" data-name="Path 37" d="M7.5,15h4" fill="none" stroke="#002959" stroke-linecap="round" stroke-linejoin="round" stroke-width="1.5"/>
  <path id="Path_38" data-name="Path 38" d="M3.5,21V5a2,2,0,0,1,2-2h8a2,2,0,0,1,2,2V21" fill="none" stroke="#002959" stroke-linecap="round" stroke-linejoin="round" stroke-width="1.5"/>
  <path id="Path_39" data-name="Path 39" d="M19.5,5l1.414,1.414A2,2,0,0,1,21.5,7.828V17.5A1.5,1.5,0,0,1,20,19h0a1.5,1.5,0,0,1-1.5-1.5V16a1,1,0,0,0-1-1h-2" fill="none" stroke="#002959" stroke-linecap="round" stroke-linejoin="round" stroke-width="1.5"/>
  <path id="Path_40" data-name="Path 40" d="M21.5,12H19.633a1,1,0,0,1-.992-1.124l.25-2A1,1,0,0,1,19.883,8H21.5" fill="none" stroke="#002959" stroke-linecap="round" stroke-linejoin="round" stroke-width="1.5"/>
  <path id="Path_41" data-name="Path 41" d="M2.5,21h14" fill="none" stroke="#002959" stroke-linecap="round" stroke-linejoin="round" stroke-width="1.5"/>
</svg>
