<svg id="dashboard" xmlns="http://www.w3.org/2000/svg" width="32" height="32" viewBox="0 0 32 32">
  <path id="Path_106" data-name="Path 106" d="M32,32H0V0H32Z" fill="none"/>
  <path id="Path_107" data-name="Path 107" d="M7.646,6.691l-.71-3.074A.8.8,0,0,0,5.6,3.233L3.233,5.6a.8.8,0,0,0,.384,1.337l3.074.71a.8.8,0,0,0,.954-.954Z" transform="translate(1 1)" fill="none" stroke="#fff" stroke-linecap="round" stroke-linejoin="round" stroke-width="1.5"/>
  <path id="Path_108" data-name="Path 108" d="M25,15A11.973,11.973,0,0,0,9,3.7" transform="translate(3 1)" fill="none" stroke="#fff" stroke-linecap="round" stroke-linejoin="round" stroke-width="1.5"/>
  <path id="Path_109" data-name="Path 109" d="M3.7,9A12,12,0,1,0,27,13" transform="translate(1.002 3)" fill="none" stroke="#fff" stroke-linecap="round" stroke-linejoin="round" stroke-width="1.5"/>
  <path id="Path_110" data-name="Path 110" d="M9.2,8.775l4.962,2.043A2.562,2.562,0,0,1,15,15h0a2.562,2.562,0,0,1-4.18-.836L8.775,9.2A.326.326,0,0,1,9.2,8.775Z" transform="translate(2.917 2.917)" fill="none" stroke="#fff" stroke-linecap="round" stroke-linejoin="round" stroke-width="1.5"/>
</svg>
