<svg xmlns="http://www.w3.org/2000/svg" width="47.966" height="13.064" viewBox="0 0 47.966 13.064">
  <g id="Group_22" data-name="Group 22" transform="translate(0 -45.169)">
    <path id="Path_1" data-name="Path 1" d="M8.782,29.057a3.589,3.589,0,1,0,3.728,3.751c0-.1.007-.2,0-.306A3.59,3.59,0,0,0,8.782,29.057Zm-.255,1.375.04,1.031a1.268,1.268,0,0,0-.312.146l-.76-.7A2.214,2.214,0,0,1,8.527,30.432Zm-1.451.932.761.7a1.316,1.316,0,0,0-.117.32l-1.031.042A2.217,2.217,0,0,1,7.075,31.364Zm-.367,1.685,1.038-.041a1.3,1.3,0,0,0,.143.307l-.7.762A2.274,2.274,0,0,1,6.708,33.049ZM7.647,34.5l.7-.759a1.2,1.2,0,0,0,.315.112L8.7,34.884A2.268,2.268,0,0,1,7.647,34.5ZM11.14,32.25l-1.031.042a1.237,1.237,0,0,0-.143-.311l.7-.762A2.241,2.241,0,0,1,11.14,32.25ZM9.147,30.407a2.217,2.217,0,0,1,1.064.392l-.7.759a1.18,1.18,0,0,0-.322-.12Zm.178,4.452-.041-1.035a1.193,1.193,0,0,0,.306-.14l.758.7A2.225,2.225,0,0,1,9.325,34.859Zm1.452-.924-.765-.706a1.292,1.292,0,0,0,.121-.317l1.03-.041A2.237,2.237,0,0,1,10.777,33.935Z" transform="translate(0 22)" fill="#fff"/>
    <path id="Path_2" data-name="Path 2" d="M36.433,28.212a3.588,3.588,0,0,0-3.443,3.73,3.659,3.659,0,0,0,.049.45,3.587,3.587,0,0,0,7.121-.43c0-.1.008-.2,0-.307A3.591,3.591,0,0,0,36.433,28.212Zm-.256,1.375.04,1.032a1.245,1.245,0,0,0-.311.145l-.761-.7A2.2,2.2,0,0,1,36.178,29.587Zm-1.451.932.761.7a1.307,1.307,0,0,0-.117.321l-1.032.042A2.23,2.23,0,0,1,34.726,30.519ZM34.36,32.2l1.038-.041a1.3,1.3,0,0,0,.142.307l-.7.762A2.257,2.257,0,0,1,34.36,32.2ZM35.3,33.65l.7-.759a1.2,1.2,0,0,0,.315.112l.042,1.035A2.269,2.269,0,0,1,35.3,33.65Zm3.494-2.245-1.031.042a1.222,1.222,0,0,0-.143-.31l.7-.762A2.245,2.245,0,0,1,38.791,31.405ZM36.8,29.562a2.21,2.21,0,0,1,1.065.392l-.7.759a1.173,1.173,0,0,0-.322-.12Zm.179,4.452-.042-1.035a1.179,1.179,0,0,0,.306-.139l.758.7A2.224,2.224,0,0,1,36.977,34.014Zm1.451-.924-.765-.706a1.284,1.284,0,0,0,.121-.317l1.03-.041A2.211,2.211,0,0,1,38.427,33.09Z" transform="translate(0 22)" fill="#fff"/>
    <path id="Path_3" data-name="Path 3" d="M47.922,29.618a.344.344,0,0,0-.31-.177l-.551.017s.278-1.375.373-2.08a.249.249,0,0,0-.255-.282c-1.829.056-9.747-1.654-12.22-3.5a1.776,1.776,0,0,0-.907-.328c-1.869-.174-5.647-.08-7.2-.031a2.856,2.856,0,0,0-1.3.358S21.8,25.851,20.462,26.41c-2.267.944-7.606.67-9.085.582a11.959,11.959,0,0,0-8.271,2.16,14.076,14.076,0,0,0-2.8,1.087.6.6,0,0,0-.062,1,.946.946,0,0,0,.283.159l.082.315a2.111,2.111,0,0,0,1.238,1.424L3,33.615a5.776,5.776,0,0,0,2.067.436,3.922,3.922,0,0,1-.192-.73,4,4,0,0,1-.056-.515,4.107,4.107,0,0,1,3.941-4.27,4.133,4.133,0,0,1,4.273,3.942c0,.116,0,.232,0,.349a4.049,4.049,0,0,1-.322,1.4l.967.023,19.782.212a4.082,4.082,0,0,1-.93-1.987,3.829,3.829,0,0,1-.055-.515,4.106,4.106,0,0,1,3.941-4.269,4.133,4.133,0,0,1,4.273,3.942c0,.116,0,.232,0,.348a4.031,4.031,0,0,1-.237,1.192l3.89-.119a.344.344,0,0,0,.248-.118l.907-1.045.993-.03a.343.343,0,0,0,.275-.152l1.153-1.737A.346.346,0,0,0,47.922,29.618ZM31.48,26.161l-.089.018a1.138,1.138,0,0,0-.691.445c-.853.536-4.992.558-7.747.236l3.174-2.585a.938.938,0,0,1,.574-.209L31.337,24a.491.491,0,0,1,.5.477l.037,1.188A.488.488,0,0,1,31.48,26.161Z" transform="translate(0 22)" fill="#fff"/>
  </g>
</svg>
