<svg id="Business_Chart.21" data-name="Business, Chart.21" xmlns="http://www.w3.org/2000/svg" width="24" height="24" viewBox="0 0 24 24">
  <path id="Path_16" data-name="Path 16" d="M0,0H24V24H0Z" fill="none"/>
  <path id="Path_17" data-name="Path 17" d="M14.22,2.335A7.588,7.588,0,0,1,20.582,8.7a1,1,0,0,1-1,1.136h-5.5a1,1,0,0,1-1-1v-5.5a1,1,0,0,1,1.137-1Z" fill="none" stroke="#fff" stroke-linecap="round" stroke-linejoin="round" stroke-width="1.5"/>
  <path id="Path_18" data-name="Path 18" d="M19.184,17.589a7.528,7.528,0,0,0,1.4-3.369,1,1,0,0,0-1-1.136H15.5a1,1,0,0,0-.707,1.707l2.891,2.891a1,1,0,0,0,1.5-.093Z" fill="none" stroke="#fff" stroke-linecap="round" stroke-linejoin="round" stroke-width="1.5"/>
  <path id="Path_19" data-name="Path 19" d="M8.709,6.666a7.585,7.585,0,1,0,5.625,13.6,1,1,0,0,0,.1-1.506l-4.3-4.3a1,1,0,0,1-.293-.707V7.662a1,1,0,0,0-1.124-1Z" fill="none" stroke="#fff" stroke-linecap="round" stroke-linejoin="round" stroke-width="1.5"/>
</svg>
