<svg id="Speedometer" xmlns="http://www.w3.org/2000/svg" width="32" height="32" viewBox="0 0 32 32">
  <g id="Group_43" data-name="Group 43" transform="translate(4 4)">
    <path id="Path_55" data-name="Path 55" d="M23.485,6.515a12,12,0,1,1-16.971,0,12,12,0,0,1,16.971,0" transform="translate(-3 -3)" fill="none" stroke="#fff" stroke-linecap="round" stroke-linejoin="round" stroke-width="1.5"/>
    <path id="Path_56" data-name="Path 56" d="M21.022,19.708A4.3,4.3,0,0,0,17.037,17H10.573a4.3,4.3,0,0,0-3.987,2.708" transform="translate(-1.805 1.667)" fill="none" stroke="#fff" stroke-linecap="round" stroke-linejoin="round" stroke-width="1.5"/>
    <path id="Path_57" data-name="Path 57" d="M14.552,10.781a2.667,2.667,0,1,1-3.771,0,2.667,2.667,0,0,1,3.771,0" transform="translate(-0.667 -0.667)" fill="none" stroke="#fff" stroke-linecap="round" stroke-linejoin="round" stroke-width="1.5"/>
    <path id="Path_58" data-name="Path 58" d="M12,3V5.667" transform="translate(0 -3)" fill="none" stroke="#fff" stroke-linecap="round" stroke-linejoin="round" stroke-width="1.5"/>
    <path id="Path_59" data-name="Path 59" d="M16.79,4.21l-1.16,2" transform="translate(1.21 -2.597)" fill="none" stroke="#fff" stroke-linecap="round" stroke-linejoin="round" stroke-width="1.5"/>
    <path id="Path_60" data-name="Path 60" d="M7.5,4.21l1.16,2" transform="translate(-1.5 -2.597)" fill="none" stroke="#fff" stroke-linecap="round" stroke-linejoin="round" stroke-width="1.5"/>
    <path id="Path_61" data-name="Path 61" d="M4.21,7.5l2,1.16" transform="translate(-2.597 -1.5)" fill="none" stroke="#fff" stroke-linecap="round" stroke-linejoin="round" stroke-width="1.5"/>
    <path id="Path_62" data-name="Path 62" d="M21.5,12h-2" transform="translate(2.5 0)" fill="none" stroke="#fff" stroke-linecap="round" stroke-linejoin="round" stroke-width="1.5"/>
    <path id="Path_63" data-name="Path 63" d="M5,12H3" transform="translate(-3 0)" fill="none" stroke="#fff" stroke-linecap="round" stroke-linejoin="round" stroke-width="1.5"/>
    <path id="Path_64" data-name="Path 64" d="M13.79,12.34l8-4.84" transform="translate(0.597 -1.5)" fill="none" stroke="#fff" stroke-linecap="round" stroke-linejoin="round" stroke-width="1.5"/>
  </g>
  <path id="Path_65" data-name="Path 65" d="M0,0H32V32H0Z" fill="none"/>
</svg>
