<svg width="1224" height="334" viewBox="0 0 1224 334" fill="none" xmlns="http://www.w3.org/2000/svg">
<path d="M224.101 150.258C173.526 152.303 134.196 194.872 136.241 245.435C136.413 249.328 136.844 253.158 137.497 256.94C144.986 301.837 184.796 335.205 231.406 333.296C279.345 331.387 317.111 293.006 319.23 245.965C319.328 243.378 319.414 240.755 319.304 238.143C317.271 187.568 274.64 148.213 224.101 150.258ZM217.585 185.338L218.608 211.661C215.762 212.535 213.139 213.792 210.651 215.381L191.251 197.496C198.727 191.324 207.645 187.087 217.585 185.338ZM180.547 209.123L199.959 227.045C198.641 229.595 197.594 232.354 196.966 235.212L170.668 236.283C171.616 226.257 175.053 217.006 180.547 209.123ZM171.173 252.111L197.668 251.064C198.555 253.86 199.762 256.472 201.314 258.911L183.343 278.348C177.295 270.945 172.984 261.978 171.173 252.111ZM195.131 289.027L213.016 269.664C215.467 270.957 218.238 271.955 221.059 272.534L222.106 298.955C212.178 297.957 202.977 294.41 195.131 289.027ZM284.272 231.738L257.962 232.797C257.125 229.964 255.868 227.341 254.304 224.865L272.238 205.428C278.323 212.88 282.511 221.823 284.272 231.738ZM233.426 184.698C243.489 185.683 252.703 189.169 260.586 194.699L242.701 214.075C240.163 212.671 237.392 211.636 234.485 211.008L233.426 184.698ZM237.959 298.314L236.912 271.906C239.72 271.08 242.307 269.873 244.721 268.334L264.059 286.256C256.681 292.303 247.825 296.553 237.959 298.314ZM275.01 274.726L255.499 256.706C256.817 254.193 257.925 251.52 258.578 248.626L284.851 247.579C283.841 257.568 280.503 266.892 275.01 274.726Z" fill="#F4F0F0"/>
<path d="M929.717 128.701C879.153 130.746 839.836 173.315 841.868 223.891C842.041 227.783 842.484 231.614 843.124 235.383C850.601 280.293 890.411 313.649 937.046 311.727C984.973 309.83 1022.75 271.437 1024.84 224.408C1024.96 221.809 1025.05 219.198 1024.92 216.574C1022.87 166.011 980.231 126.669 929.717 128.701ZM923.188 163.782L924.211 190.116C921.39 190.979 918.742 192.235 916.278 193.824L896.866 175.951C904.306 169.768 913.273 165.518 923.188 163.782ZM886.15 187.567L905.562 205.476C904.232 208.051 903.197 210.798 902.569 213.668L876.246 214.727C877.219 204.713 880.656 195.45 886.15 187.567ZM876.801 230.555L903.283 229.508C904.17 232.304 905.365 234.915 906.905 237.342L888.958 256.779C882.91 249.413 878.599 240.433 876.801 230.555ZM900.721 267.47L918.606 248.107C921.082 249.425 923.829 250.386 926.65 250.977L927.709 277.398C917.793 276.401 908.592 272.866 900.721 267.47ZM989.875 210.169L963.553 211.229C962.715 208.408 961.483 205.797 959.907 203.321L977.841 183.871C983.914 191.324 988.114 200.254 989.875 210.169ZM939.016 163.141C949.092 164.114 958.293 167.612 966.189 173.155L948.304 192.518C945.766 191.114 942.995 190.079 940.076 189.451L939.016 163.141ZM943.586 276.758L942.527 250.337C945.348 249.512 947.922 248.329 950.336 246.789L969.675 264.699C962.296 270.747 953.415 275.009 943.586 276.758ZM980.6 253.17L961.089 235.162C962.42 232.637 963.516 229.964 964.169 227.069L990.454 226.022C989.469 236.011 986.131 245.348 980.6 253.17Z" fill="#F4F0F0"/>
<path d="M1222.9 164.568C1221.31 161.723 1218.26 159.961 1214.98 160.06L1200.91 160.491C1200.91 160.491 1208 125.411 1210.42 107.427C1210.67 105.579 1210.09 103.707 1208.83 102.315C1207.56 100.936 1205.78 100.16 1203.92 100.221C1157.24 101.662 955.191 58.0091 892.088 10.9439C885.387 5.94299 877.307 3.34399 868.944 2.56798C821.238 -1.86633 724.829 0.523283 685.105 1.77967C673.452 2.1492 662.219 5.26554 651.995 10.9193C651.995 10.9193 556.399 68.4544 522.156 82.7058C464.313 106.787 328.057 99.7901 290.316 97.5484C242.598 94.7153 164.172 91.9562 79.2554 152.669C79.2554 152.669 39.0633 163.115 7.83839 180.396C3.29323 182.921 0.349344 187.577 0.0290889 192.763C-0.291167 197.948 2.04916 202.937 6.24943 205.98C11.0409 209.453 13.4798 210.032 13.4798 210.032L15.5615 218.075C19.7987 234.482 31.5003 247.958 47.1436 254.412L76.5332 266.557C93.285 273.479 111.182 277.249 129.289 277.68C127.097 271.718 125.434 265.522 124.387 259.043C123.66 254.745 123.143 250.384 122.97 245.913C121.837 217.94 131.666 191.174 150.672 170.591C169.654 150.021 195.545 138.073 223.53 136.952C281.792 135.178 330.262 180.322 332.565 237.549C332.676 240.518 332.59 243.474 332.467 246.455C331.9 259.043 328.968 271.127 324.251 282.225L348.923 282.816L853.719 288.236C841.66 274.169 833.21 256.826 829.983 237.525C829.257 233.238 828.727 228.865 828.579 224.394C827.434 196.421 837.288 169.655 856.269 149.085C875.262 128.502 901.142 116.554 929.139 115.446C987.401 113.66 1035.86 158.816 1038.17 216.031C1038.28 218.999 1038.19 221.955 1038.08 224.924C1037.61 235.529 1035.48 245.728 1032.02 255.336L1131.28 252.306C1133.7 252.232 1136.02 251.136 1137.61 249.3L1160.77 222.633L1186.12 221.869C1188.94 221.783 1191.56 220.342 1193.13 217.989L1222.55 173.671C1224.34 170.924 1224.49 167.413 1222.9 164.568ZM803.328 76.3622L801.049 76.8303C793.967 78.2838 787.685 82.3239 783.411 88.1871C761.633 101.86 656.023 102.414 585.727 94.2226L666.715 28.25C670.866 24.875 676.039 23.0028 681.36 22.9042L799.658 21.2413C806.518 21.1551 812.172 26.5748 812.357 33.4111L813.293 63.7122C813.49 69.8216 809.29 75.1551 803.328 76.3622Z" fill="#F4F0F0"/>
</svg>
